<?xml version="1.0" encoding="UTF-8" standalone="no"?>
<!DOCTYPE svg PUBLIC "-//W3C//DTD SVG 1.1//EN" "http://www.w3.org/Graphics/SVG/1.1/DTD/svg11.dtd">
<svg width="100%" height="100%" viewBox="0 0 274 274" version="1.1" xmlns="http://www.w3.org/2000/svg" xmlns:xlink="http://www.w3.org/1999/xlink" xml:space="preserve" xmlns:serif="http://www.serif.com/" style="fill-rule:evenodd;clip-rule:evenodd;stroke-linecap:round;stroke-linejoin:round;">
    <g transform="matrix(1,0,0,1,-607.589395,-102.859562)">
        <g transform="matrix(0.5,0,0,0.5,473.203867,201.401614)">
            <g transform="matrix(2.844444,0,0,2.844444,338.992621,125.08615)">
                <g>
                    <g transform="matrix(1.07275,0,0,1.187802,-586.380421,-378.529632)">
                        <path d="M697.078,266.343L697.078,342.114C697.078,363.023 678.281,379.999 655.129,379.999L571.233,379.999C548.081,379.999 529.285,363.023 529.285,342.114L529.285,266.343C529.285,245.434 548.081,228.458 571.233,228.458L655.129,228.458C678.281,228.458 697.078,245.434 697.078,266.343Z" style="fill:rgb(5,150,105);"/>
                        <path d="M702.761,266.343L702.761,342.114C702.761,365.856 681.418,385.132 655.129,385.132L571.233,385.132C544.944,385.132 523.601,365.856 523.601,342.114L523.601,266.343C523.601,242.601 544.944,223.326 571.233,223.326L655.129,223.326C681.418,223.326 702.761,242.601 702.761,266.343ZM697.078,266.343C697.078,245.434 678.281,228.458 655.129,228.458L571.233,228.458C548.081,228.458 529.285,245.434 529.285,266.343L529.285,342.114C529.285,363.023 548.081,379.999 571.233,379.999L655.129,379.999C678.281,379.999 697.078,363.023 697.078,342.114L697.078,266.343Z" style="fill:rgb(0,54,22);"/>
                    </g>
                </g>
                <g transform="matrix(0.90388,0,0,0.90388,1.810821,10.473932)">
                    <g>
                        <g>
                            <g transform="matrix(7.5,0,0,8.333722,-13,-119.989175)">
                                <path d="M14.217,3.5C12.815,2.834 11.185,2.834 9.783,3.5L3.092,6.637C1.636,7.319 1.636,9.681 3.092,10.363L9.782,13.5C11.184,14.166 12.815,14.166 14.217,13.5L20.908,10.363C22.364,9.681 22.364,7.319 20.908,6.637L14.217,3.5ZM22,8.5L22,13.5" style="fill:none;fill-rule:nonzero;stroke:rgb(0,54,22);stroke-width:1.5px;"/>
                            </g>
                            <g transform="matrix(7.5,0,0,6.102481,-13,-94.32991)">
                                <path d="M5,11.5L5,16.625C5,19.543 9.694,21 12,21C14.306,21 19,19.543 19,16.625L19,11.5" style="fill:none;fill-rule:nonzero;stroke:rgb(0,54,22);stroke-width:1.5px;"/>
                            </g>
                        </g>
                    </g>
                </g>
            </g>
        </g>
    </g>
</svg>
